<mxfile host="app.diagrams.net" agent="Mozilla/5.0 (Macintosh; Intel Mac OS X 10_15_7) AppleWebKit/537.36 (KHTML, like Gecko) Chrome/131.0.0.0 Safari/537.36 Edg/131.0.0.0" version="25.0.3">
  <diagram name="第 1 页" id="K7QFGIRe6QRUcPZxnDnA">
    <mxGraphModel dx="744" dy="602" grid="1" gridSize="10" guides="1" tooltips="1" connect="1" arrows="1" fold="1" page="1" pageScale="1" pageWidth="827" pageHeight="1169" math="0" shadow="0">
      <root>
        <mxCell id="0" />
        <mxCell id="1" parent="0" />
        <mxCell id="Y8IqZ6dB-0DfHrivtcVk-8" value="" style="edgeStyle=orthogonalEdgeStyle;rounded=0;orthogonalLoop=1;jettySize=auto;html=1;" edge="1" parent="1" source="Y8IqZ6dB-0DfHrivtcVk-6" target="Y8IqZ6dB-0DfHrivtcVk-7">
          <mxGeometry relative="1" as="geometry" />
        </mxCell>
        <mxCell id="Y8IqZ6dB-0DfHrivtcVk-6" value="Actor" style="shape=umlActor;verticalLabelPosition=bottom;verticalAlign=top;html=1;outlineConnect=0;" vertex="1" parent="1">
          <mxGeometry x="460" y="250" width="30" height="60" as="geometry" />
        </mxCell>
        <mxCell id="Y8IqZ6dB-0DfHrivtcVk-7" value="ELB" style="whiteSpace=wrap;html=1;verticalAlign=top;" vertex="1" parent="1">
          <mxGeometry x="415" y="390" width="120" height="60" as="geometry" />
        </mxCell>
        <mxCell id="Y8IqZ6dB-0DfHrivtcVk-22" value="" style="edgeStyle=orthogonalEdgeStyle;rounded=0;orthogonalLoop=1;jettySize=auto;html=1;" edge="1" parent="1" source="Y8IqZ6dB-0DfHrivtcVk-9" target="Y8IqZ6dB-0DfHrivtcVk-11">
          <mxGeometry relative="1" as="geometry" />
        </mxCell>
        <mxCell id="Y8IqZ6dB-0DfHrivtcVk-9" value="master1" style="rounded=0;whiteSpace=wrap;html=1;fillColor=#f8cecc;strokeColor=#b85450;" vertex="1" parent="1">
          <mxGeometry x="270" y="540" width="120" height="60" as="geometry" />
        </mxCell>
        <mxCell id="Y8IqZ6dB-0DfHrivtcVk-23" value="" style="edgeStyle=orthogonalEdgeStyle;rounded=0;orthogonalLoop=1;jettySize=auto;html=1;" edge="1" parent="1" source="Y8IqZ6dB-0DfHrivtcVk-10" target="Y8IqZ6dB-0DfHrivtcVk-11">
          <mxGeometry relative="1" as="geometry" />
        </mxCell>
        <mxCell id="Y8IqZ6dB-0DfHrivtcVk-10" value="master2" style="rounded=0;whiteSpace=wrap;html=1;fillColor=#f8cecc;strokeColor=#b85450;" vertex="1" parent="1">
          <mxGeometry x="570" y="540" width="120" height="60" as="geometry" />
        </mxCell>
        <mxCell id="Y8IqZ6dB-0DfHrivtcVk-25" value="" style="edgeStyle=orthogonalEdgeStyle;rounded=0;orthogonalLoop=1;jettySize=auto;html=1;" edge="1" parent="1" source="Y8IqZ6dB-0DfHrivtcVk-11" target="Y8IqZ6dB-0DfHrivtcVk-14">
          <mxGeometry relative="1" as="geometry">
            <Array as="points">
              <mxPoint x="480" y="750" />
              <mxPoint x="480" y="750" />
            </Array>
          </mxGeometry>
        </mxCell>
        <mxCell id="Y8IqZ6dB-0DfHrivtcVk-11" value="nginx-service" style="rounded=1;whiteSpace=wrap;html=1;fillColor=#d5e8d4;strokeColor=#82b366;" vertex="1" parent="1">
          <mxGeometry x="270" y="660" width="420" height="60" as="geometry" />
        </mxCell>
        <mxCell id="Y8IqZ6dB-0DfHrivtcVk-13" value="&lt;div style=&quot;&quot;&gt;&lt;span style=&quot;background-color: initial;&quot;&gt;node1&lt;/span&gt;&lt;/div&gt;" style="rounded=0;whiteSpace=wrap;html=1;fillColor=#f8cecc;strokeColor=#b85450;align=center;" vertex="1" parent="1">
          <mxGeometry x="270" y="760" width="120" height="140" as="geometry" />
        </mxCell>
        <mxCell id="Y8IqZ6dB-0DfHrivtcVk-14" value="node2" style="rounded=0;whiteSpace=wrap;html=1;fillColor=#f8cecc;strokeColor=#b85450;" vertex="1" parent="1">
          <mxGeometry x="430" y="760" width="120" height="140" as="geometry" />
        </mxCell>
        <mxCell id="Y8IqZ6dB-0DfHrivtcVk-15" value="node3" style="rounded=0;whiteSpace=wrap;html=1;fillColor=#f8cecc;strokeColor=#b85450;" vertex="1" parent="1">
          <mxGeometry x="580" y="760" width="120" height="140" as="geometry" />
        </mxCell>
        <mxCell id="Y8IqZ6dB-0DfHrivtcVk-16" value="nginx-po-1" style="rounded=0;whiteSpace=wrap;html=1;fillColor=#d5e8d4;strokeColor=#82b366;" vertex="1" parent="1">
          <mxGeometry x="270" y="840" width="120" height="60" as="geometry" />
        </mxCell>
        <mxCell id="Y8IqZ6dB-0DfHrivtcVk-17" value="nginx-po-2" style="rounded=0;whiteSpace=wrap;html=1;fillColor=#d5e8d4;strokeColor=#82b366;" vertex="1" parent="1">
          <mxGeometry x="430" y="840" width="120" height="60" as="geometry" />
        </mxCell>
        <mxCell id="Y8IqZ6dB-0DfHrivtcVk-18" value="nginx-po-3" style="rounded=0;whiteSpace=wrap;html=1;fillColor=#d5e8d4;strokeColor=#82b366;" vertex="1" parent="1">
          <mxGeometry x="580" y="840" width="120" height="60" as="geometry" />
        </mxCell>
        <mxCell id="Y8IqZ6dB-0DfHrivtcVk-26" value="" style="endArrow=none;html=1;rounded=0;" edge="1" parent="1">
          <mxGeometry width="50" height="50" relative="1" as="geometry">
            <mxPoint x="320" y="740" as="sourcePoint" />
            <mxPoint x="640" y="740" as="targetPoint" />
          </mxGeometry>
        </mxCell>
        <mxCell id="Y8IqZ6dB-0DfHrivtcVk-28" value="" style="endArrow=classic;html=1;rounded=0;entryX=0.415;entryY=0.004;entryDx=0;entryDy=0;entryPerimeter=0;" edge="1" parent="1" target="Y8IqZ6dB-0DfHrivtcVk-13">
          <mxGeometry width="50" height="50" relative="1" as="geometry">
            <mxPoint x="320" y="740" as="sourcePoint" />
            <mxPoint x="500" y="670" as="targetPoint" />
          </mxGeometry>
        </mxCell>
        <mxCell id="Y8IqZ6dB-0DfHrivtcVk-29" value="" style="endArrow=classic;html=1;rounded=0;entryX=0.415;entryY=0.004;entryDx=0;entryDy=0;entryPerimeter=0;" edge="1" parent="1">
          <mxGeometry width="50" height="50" relative="1" as="geometry">
            <mxPoint x="639" y="740" as="sourcePoint" />
            <mxPoint x="639" y="761" as="targetPoint" />
            <Array as="points">
              <mxPoint x="639" y="760" />
            </Array>
          </mxGeometry>
        </mxCell>
        <mxCell id="Y8IqZ6dB-0DfHrivtcVk-33" value="" style="endArrow=classic;html=1;rounded=0;exitX=0.5;exitY=1;exitDx=0;exitDy=0;" edge="1" parent="1" source="Y8IqZ6dB-0DfHrivtcVk-7">
          <mxGeometry width="50" height="50" relative="1" as="geometry">
            <mxPoint x="480" y="470" as="sourcePoint" />
            <mxPoint x="475" y="500" as="targetPoint" />
          </mxGeometry>
        </mxCell>
        <mxCell id="Y8IqZ6dB-0DfHrivtcVk-34" value="" style="endArrow=none;html=1;rounded=0;" edge="1" parent="1">
          <mxGeometry width="50" height="50" relative="1" as="geometry">
            <mxPoint x="360" y="500" as="sourcePoint" />
            <mxPoint x="630" y="500" as="targetPoint" />
          </mxGeometry>
        </mxCell>
        <mxCell id="Y8IqZ6dB-0DfHrivtcVk-35" value="" style="endArrow=classic;html=1;rounded=0;" edge="1" parent="1">
          <mxGeometry width="50" height="50" relative="1" as="geometry">
            <mxPoint x="360" y="500" as="sourcePoint" />
            <mxPoint x="360" y="540" as="targetPoint" />
            <Array as="points">
              <mxPoint x="360" y="520" />
            </Array>
          </mxGeometry>
        </mxCell>
        <mxCell id="Y8IqZ6dB-0DfHrivtcVk-36" value="" style="endArrow=classic;html=1;rounded=0;" edge="1" parent="1">
          <mxGeometry width="50" height="50" relative="1" as="geometry">
            <mxPoint x="629.6600000000001" y="500" as="sourcePoint" />
            <mxPoint x="629.6600000000001" y="540" as="targetPoint" />
          </mxGeometry>
        </mxCell>
      </root>
    </mxGraphModel>
  </diagram>
</mxfile>
